<?xml version="1.0" encoding="UTF-8" standalone="no"?>
<!-- Created with Inkscape (http://www.inkscape.org/) -->

<svg
   xmlns:dc="http://purl.org/dc/elements/1.1/"
   xmlns:cc="http://creativecommons.org/ns#"
   xmlns:rdf="http://www.w3.org/1999/02/22-rdf-syntax-ns#"
   xmlns:svg="http://www.w3.org/2000/svg"
   xmlns="http://www.w3.org/2000/svg"
   xmlns:sodipodi="http://sodipodi.sourceforge.net/DTD/sodipodi-0.dtd"
   xmlns:inkscape="http://www.inkscape.org/namespaces/inkscape"
   width="19.364859"
   height="34"
   viewBox="0 0 5.1236188 8.9958336"
   version="1.1"
   id="svg3744"
   sodipodi:docname="water-marker.svg"
   inkscape:version="0.92.2 5c3e80d, 2017-08-06">
  <defs
     id="defs3738" />
  <sodipodi:namedview
     id="base"
     pagecolor="#ffffff"
     bordercolor="#666666"
     borderopacity="1.0"
     inkscape:pageopacity="0.0"
     inkscape:pageshadow="2"
     inkscape:zoom="1.4142136"
     inkscape:cx="-195.53447"
     inkscape:cy="8.8811006"
     inkscape:document-units="mm"
     inkscape:current-layer="layer1"
     showgrid="false"
     showguides="false"
     inkscape:window-width="1680"
     inkscape:window-height="925"
     inkscape:window-x="0"
     inkscape:window-y="1"
     inkscape:window-maximized="1"
     units="px"
     fit-margin-top="0"
     fit-margin-left="0"
     fit-margin-right="0"
     fit-margin-bottom="0" />
  <metadata
     id="metadata3741">
    <rdf:RDF>
      <cc:Work
         rdf:about="">
        <dc:format>image/svg+xml</dc:format>
        <dc:type
           rdf:resource="http://purl.org/dc/dcmitype/StillImage" />
        <dc:title></dc:title>
      </cc:Work>
    </rdf:RDF>
  </metadata>
  <g
     inkscape:label="Layer 1"
     inkscape:groupmode="layer"
     id="layer1"
     transform="translate(-102.43819,-105.70625)">
    <g
       id="g4627"
       transform="matrix(0.12788103,0,0,0.12788103,91.572493,96.111143)">
      <path
         sodipodi:nodetypes="acaaa"
         inkscape:connector-curvature="0"
         id="rect3746"
         d="M 124.84196,95.387489 C 127.31105,115.28625 105,145.37683 105,145.37683 c 0,0 -22.311049,-30.09058 -19.841959,-49.989331 1.6416,-13.2299 12.200172,-20.356 19.841959,-20.356 7.64179,-1e-5 18.20037,7.1261 19.84196,20.35599 z"
         style="opacity:1;fill:#a7a7ff;fill-opacity:1;stroke-width:0.19872481" />
      <g
         transform="translate(-0.87069799)"
         id="g4602">
        <path
           sodipodi:nodetypes="acaaa"
           inkscape:connector-curvature="0"
           id="path4596"
           d="m 95.223491,96.824193 c -0.775316,-5.100122 6.230569,-12.812438 6.230569,-12.812438 0,0 7.00591,7.712316 6.23059,12.812438 -0.51548,3.390867 -3.83097,5.217307 -6.23059,5.217307 -2.399589,1e-5 -5.715099,-1.82644 -6.230569,-5.217307 z"
           style="opacity:1;fill:#ffffff;fill-opacity:1;stroke-width:0.05637692" />
        <path
           style="opacity:1;fill:#ffffff;fill-opacity:1;stroke-width:0.03850075"
           d="m 108.02698,103.8744 c -0.52949,-3.48296 4.25495,-8.749834 4.25495,-8.749834 0,0 4.78446,5.266874 4.25497,8.749834 -0.35202,2.31567 -2.61624,3.56299 -4.25497,3.56299 -1.63873,0 -3.90295,-1.24732 -4.25495,-3.56299 z"
           id="path4598"
           inkscape:connector-curvature="0"
           sodipodi:nodetypes="acaaa" />
      </g>
    </g>
  </g>
</svg>
